<?xml version="1.0" encoding="utf-8"?>
<!-- Generator: Adobe Illustrator 24.0.2, SVG Export Plug-In . SVG Version: 6.00 Build 0)  -->
<svg version="1.1" id="Layer_1" xmlns="http://www.w3.org/2000/svg" xmlns:xlink="http://www.w3.org/1999/xlink" x="0px" y="0px"
	 viewBox="0 0 287.16 198.53" style="enable-background:new 0 0 287.16 198.53;" xml:space="preserve">
<style type="text/css">
	.st0{fill:#010101;}
	.st1{fill:#59572A;}
</style>
<g>
	<g>
		<path class="st0" d="M236.2,39.09c-0.26,1.13-1.32,1.82-2.71,1.82c-1.79,0-2.94-1.13-2.94-2.83c0-1.69,1.16-2.83,2.86-2.83
			c1.64,0,2.75,1.03,2.75,2.55c0,0.22-0.03,0.38-0.06,0.56h-3.99v0.04c0,0.82,0.56,1.28,1.38,1.28c0.58,0,1.01-0.23,1.19-0.59H236.2
			z M232.12,37.37h2.44c-0.02-0.54-0.52-0.92-1.19-0.92C232.73,36.45,232.25,36.81,232.12,37.37z"/>
		<path class="st0" d="M236.97,39.1h1.46c0.03,0.43,0.4,0.68,0.95,0.68c0.52,0,0.79-0.22,0.79-0.55s-0.28-0.45-0.55-0.49l-0.94-0.16
			c-1.02-0.18-1.67-0.67-1.67-1.57c0-1.06,0.92-1.77,2.27-1.77c1.35,0,2.28,0.69,2.3,1.73h-1.38c-0.03-0.39-0.38-0.63-0.9-0.63
			c-0.45,0-0.75,0.2-0.75,0.52c0,0.35,0.36,0.43,0.61,0.47l1.01,0.15c1.09,0.19,1.55,0.82,1.55,1.58c0,1.1-0.93,1.83-2.34,1.83
			C237.94,40.91,237,40.19,236.97,39.1z"/>
		<path class="st0" d="M243.36,39.06v-2.44h-1.15v-1.27h1.15v-1.67h1.56v1.67h1.27v1.27h-1.27v2.16c0,0.52,0.09,0.82,0.78,0.82
			c0.14,0,0.28-0.01,0.4-0.02v1.22c-0.34,0.06-0.73,0.1-1.02,0.1C243.36,40.9,243.36,39.63,243.36,39.06z"/>
		<path class="st0" d="M252.96,33.06v7.74h-1.35l-0.11-0.74c-0.39,0.52-1.14,0.85-2.02,0.85c-1.64,0-2.71-1.13-2.71-2.81
			c0-1.71,1.14-2.85,2.84-2.85c0.73,0,1.4,0.24,1.82,0.66v-2.85H252.96z M251.41,38.15v-0.1c0-0.92-0.63-1.52-1.55-1.52
			c-0.93,0-1.54,0.62-1.54,1.54c0,0.94,0.62,1.55,1.54,1.55C250.78,39.62,251.41,39.04,251.41,38.15z"/>
		<path class="st0" d="M236.02,48.02v1.39h-5.33V48.4l2.19-2c0.83-0.75,1.4-1.3,1.41-1.97c0.01-0.66-0.43-1.05-1.08-1.05
			c-0.68,0-1.11,0.52-1.06,1.22l-1.56-0.08c-0.04-1.54,1.06-2.53,2.68-2.53c1.6,0,2.68,0.97,2.68,2.34c0,1.21-0.89,2.1-1.9,2.98
			l-0.97,0.86c0.6-0.12,1.2-0.14,1.71-0.14H236.02z"/>
		<path class="st0" d="M236.96,45.72c0-2.51,1.08-3.74,2.83-3.74c1.86,0,2.8,1.45,2.8,3.78c0,2.52-1.08,3.76-2.8,3.76
			C237.89,49.51,236.96,48.06,236.96,45.72z M240.92,45.76c0-1.69-0.4-2.39-1.14-2.39c-0.83,0-1.16,0.89-1.16,2.35
			c0,1.71,0.41,2.41,1.16,2.41C240.6,48.13,240.92,47.23,240.92,45.76z"/>
		<path class="st0" d="M243.57,43.42l2.44-1.34h1.26v7.33h-1.58v-5.56l-2.12,1.12V43.42z"/>
		<path class="st0" d="M254.49,47.04c0,1.51-1.17,2.48-2.85,2.48c-1.71,0-2.82-0.97-2.82-2.44h1.6c0.02,0.63,0.51,1.06,1.2,1.06
			c0.68,0,1.21-0.44,1.21-1.15c0-0.7-0.54-1.08-1.21-1.08c-0.34,0-0.67,0.1-0.9,0.25l-0.57-0.96l1.85-1.74h-2.68v-1.37h4.74v1.27
			l-1.54,1.45C253.65,44.92,254.49,45.76,254.49,47.04z"/>
	</g>
	<path class="st1" d="M114.27,62.84c0,0,1.03,22.31-12.39,34.9c0.83,6.82,1.03,9.77,1.45,15.93H85.15c0,0,1.03-26.05-14.87-31.22
		c-3.72-0.41-13.22-0.21-13.22,8.47c0.41,3.72,3.72,11.57,21.27,4.75c1.03,1.86,3.92,5.16,3.51,14.87
		c-7.85,2.68-7.74,2.85-15.8,3.13c-3.07-0.17-13.55-1.11-20.14-9.35c-6-7.5-6.18-18.15-0.86-26.14c3.79-5.7,10.76-10.91,23.38-10.59
		c7.28,0.31,17.5,3.1,24.01,12.55c1.7-3.1,2.32-5.16,2.17-17.3C100.64,62.78,114.27,62.84,114.27,62.84z"/>
	<path class="st1" d="M157.02,81.99h16.57V74.4c0,0-0.77-17.97-24.16-18.9c-4.49,0-31.13,1.39-30.36,34.85
		c0,5.11,0.62,33.38,37.02,37.52c0.98,0,7.23,0.32,15.9-1.95c0-3.92,0-16.94,0-16.94s-8.78,2.17-18.17,1.55
		c-4.44-0.41-19.21-4.13-18.48-23.03c0.21-6.3,1.45-14.97,15.39-16.11C152.79,71.61,157.33,71.72,157.02,81.99z"/>
	<path class="st1" d="M213.61,81.99h16.57V74.4c0,0-0.77-17.97-24.16-18.9c-4.49,0-31.13,1.39-30.36,34.85
		c0,5.11,0.62,33.38,37.02,37.52c0.98,0,7.23,0.32,15.9-1.95c0-3.92,0-16.94,0-16.94s-8.78,2.17-18.17,1.55
		c-4.44-0.41-19.21-4.13-18.48-23.03c0.21-6.3,1.45-14.97,15.39-16.11C209.38,71.61,213.92,71.72,213.61,81.99z"/>
	<g>
		<path class="st0" d="M68.45,147.56h-2.5l-0.38,1.11h-1.52l2.3-6.21h1.68l2.38,6.21h-1.58L68.45,147.56z M68.1,146.49l-0.9-2.66
			l-0.9,2.66H68.1z"/>
		<path class="st0" d="M76.6,142.46v6.21h-1.39l-2.67-3.96v3.96h-1.36v-6.21h1.39l2.66,3.97v-3.97H76.6z"/>
		<path class="st0" d="M83.29,142.46v6.21H81.9l-2.67-3.96v3.96h-1.36v-6.21h1.39l2.66,3.97v-3.97H83.29z"/>
		<path class="st0" d="M88.43,147.56h-2.5l-0.38,1.11h-1.52l2.29-6.21H88l2.38,6.21h-1.57L88.43,147.56z M88.08,146.49l-0.9-2.66
			l-0.9,2.66H88.08z"/>
		<path class="st0" d="M91.16,142.46h1.5l2.01,3.27l1.99-3.27h1.47v6.21h-1.35v-1.38c0-0.91,0.02-1.87,0.06-2.82l-1.84,2.93h-0.67
			l-1.86-2.94c0.03,1.14,0.05,2.03,0.05,2.83v1.38h-1.36V142.46z"/>
		<path class="st0" d="M103.28,147.56h-2.5l-0.38,1.11h-1.52l2.29-6.21h1.68l2.38,6.21h-1.57L103.28,147.56z M102.93,146.49
			l-0.9-2.66l-0.9,2.66H102.93z"/>
		<path class="st0" d="M111.47,148.67h-1.67l-1.72-2.14h-0.71v2.14H106v-6.21h2.94c1.47,0,2.28,0.84,2.28,1.99
			c0,1.03-0.63,1.75-1.63,1.92L111.47,148.67z M108.82,145.43c0.64,0,0.98-0.35,0.98-0.88c0-0.57-0.39-0.86-0.98-0.86h-1.46v1.74
			H108.82z"/>
		<path class="st0" d="M116.85,142.38c1.53,0,2.68,0.86,2.95,2.17h-1.47c-0.17-0.58-0.74-0.96-1.48-0.96
			c-1.05,0-1.69,0.79-1.69,1.98c0,1.25,0.68,1.97,1.68,1.97c0.74,0,1.31-0.39,1.49-0.96h1.47c-0.27,1.32-1.41,2.17-2.95,2.17
			c-1.87,0-3.13-1.28-3.13-3.19C113.72,143.65,114.99,142.38,116.85,142.38z"/>
		<path class="st0" d="M120.75,142.46h1.36v4.98h2.93v1.22h-4.29V142.46z"/>
		<path class="st0" d="M128.71,142.38c1.94,0,3.23,1.28,3.23,3.19c0,1.91-1.29,3.19-3.23,3.19c-1.93,0-3.23-1.28-3.23-3.19
			C125.49,143.65,126.78,142.38,128.71,142.38z M128.71,147.54c1.07,0,1.79-0.79,1.79-1.98c0-1.17-0.72-1.97-1.79-1.97
			c-1.07,0-1.79,0.8-1.79,1.97C126.93,146.75,127.64,147.54,128.71,147.54z"/>
		<path class="st0" d="M137.31,143.64h-1.78v5.03h-1.37v-5.03h-1.78v-1.17h4.93V143.64z"/>
		<path class="st0" d="M138.15,142.46h1.36v2.5h2.6v-2.5h1.36v6.21h-1.36v-2.6h-2.6v2.6h-1.36V142.46z"/>
		<path class="st0" d="M144.75,148.67v-6.21h1.36v6.21H144.75z"/>
		<path class="st0" d="M152.81,142.46v6.21h-1.39l-2.67-3.96v3.96h-1.36v-6.21h1.39l2.66,3.97v-3.97H152.81z"/>
		<path class="st0" d="M160.09,145.84c0,1.75-1.24,2.92-3.1,2.92c-1.94,0-3.24-1.27-3.24-3.18c0-1.88,1.26-3.2,3.21-3.2
			c1.57,0,2.74,0.85,2.94,2.12h-1.4c-0.18-0.55-0.78-0.92-1.49-0.92c-1.11,0-1.82,0.8-1.82,2.02c0,1.23,0.72,1.99,1.82,1.99
			c0.91,0,1.57-0.51,1.67-1.26h-2.11v-1.01h3.47C160.08,145.48,160.09,145.64,160.09,145.84z"/>
		<path class="st0" d="M165.73,142.38c1.53,0,2.68,0.86,2.95,2.17h-1.47c-0.17-0.58-0.74-0.96-1.48-0.96
			c-1.05,0-1.69,0.79-1.69,1.98c0,1.25,0.68,1.97,1.68,1.97c0.74,0,1.31-0.39,1.49-0.96h1.47c-0.27,1.32-1.41,2.17-2.95,2.17
			c-1.87,0-3.13-1.28-3.13-3.19C162.6,143.65,163.88,142.38,165.73,142.38z"/>
		<path class="st0" d="M172.6,142.38c1.94,0,3.23,1.28,3.23,3.19c0,1.91-1.29,3.19-3.23,3.19c-1.93,0-3.23-1.28-3.23-3.19
			C169.37,143.65,170.66,142.38,172.6,142.38z M172.6,147.54c1.07,0,1.79-0.79,1.79-1.98c0-1.17-0.72-1.97-1.79-1.97
			c-1.07,0-1.79,0.8-1.79,1.97C170.81,146.75,171.53,147.54,172.6,147.54z"/>
		<path class="st0" d="M176.79,142.46h1.5l2.01,3.27l1.99-3.27h1.47v6.21h-1.35v-1.38c0-0.91,0.02-1.87,0.06-2.82l-1.84,2.93h-0.67
			l-1.86-2.94c0.03,1.14,0.05,2.03,0.05,2.83v1.38h-1.36V142.46z"/>
		<path class="st0" d="M190.16,144.54c0,1.32-0.93,2.08-2.35,2.07h-1.41v2.05h-1.36v-6.21h2.77
			C189.25,142.46,190.16,143.29,190.16,144.54z M188.72,144.56c0-0.59-0.41-0.87-1.02-0.87h-1.3v1.75h1.3
			C188.38,145.43,188.72,145.09,188.72,144.56z"/>
		<path class="st0" d="M194.26,147.56h-2.5l-0.38,1.11h-1.52l2.29-6.21h1.68l2.38,6.21h-1.58L194.26,147.56z M193.91,146.49
			l-0.9-2.66l-0.9,2.66H193.91z"/>
		<path class="st0" d="M202.41,142.46v6.21h-1.39l-2.67-3.96v3.96h-1.36v-6.21h1.39l2.66,3.97v-3.97H202.41z"/>
		<path class="st0" d="M209.02,142.46l-2.36,3.62v2.59h-1.36v-2.59l-2.39-3.62h1.57l1.51,2.44l1.51-2.44H209.02z"/>
		<path class="st0" d="M35.5,156.15c1.94,0,3.23,1.28,3.23,3.19c0,1.91-1.29,3.19-3.23,3.19c-1.93,0-3.23-1.28-3.23-3.19
			C32.27,157.42,33.57,156.15,35.5,156.15z M35.5,161.31c1.07,0,1.79-0.79,1.79-1.98c0-1.17-0.72-1.97-1.79-1.97
			c-1.07,0-1.79,0.8-1.79,1.97C33.71,160.52,34.43,161.31,35.5,161.31z"/>
		<path class="st0" d="M45.16,162.44h-1.67l-1.72-2.14h-0.71v2.14h-1.36v-6.21h2.94c1.47,0,2.28,0.84,2.28,1.99
			c0,1.03-0.63,1.75-1.63,1.92L45.16,162.44z M42.51,159.2c0.64,0,0.98-0.35,0.98-0.88c0-0.57-0.39-0.86-0.98-0.86h-1.46v1.74H42.51
			z"/>
		<path class="st0" d="M51.88,159.6c0,1.75-1.24,2.92-3.1,2.92c-1.94,0-3.24-1.27-3.24-3.18c0-1.88,1.26-3.2,3.21-3.2
			c1.57,0,2.74,0.85,2.94,2.12h-1.4c-0.18-0.55-0.78-0.92-1.49-0.92c-1.11,0-1.81,0.8-1.81,2.02c0,1.23,0.72,1.99,1.82,1.99
			c0.91,0,1.57-0.51,1.67-1.26h-2.11v-1.01h3.47C51.86,159.25,51.88,159.41,51.88,159.6z"/>
		<path class="st0" d="M56.57,161.33h-2.5l-0.38,1.11h-1.52l2.29-6.21h1.68l2.38,6.21h-1.57L56.57,161.33z M56.22,160.26l-0.9-2.66
			l-0.9,2.66H56.22z"/>
		<path class="st0" d="M64.72,156.23v6.21h-1.39l-2.67-3.96v3.96H59.3v-6.21h1.39l2.66,3.97v-3.97H64.72z"/>
		<path class="st0" d="M65.99,162.44v-6.21h1.36v6.21H65.99z"/>
		<path class="st0" d="M71.44,156.15c1.53,0,2.68,0.86,2.94,2.17h-1.47c-0.17-0.58-0.74-0.96-1.48-0.96c-1.05,0-1.69,0.79-1.69,1.98
			c0,1.25,0.68,1.97,1.68,1.97c0.74,0,1.31-0.39,1.49-0.96h1.47c-0.26,1.32-1.41,2.17-2.94,2.17c-1.87,0-3.13-1.28-3.13-3.19
			C68.3,157.42,69.58,156.15,71.44,156.15z"/>
		<path class="st0" d="M80.02,156.15c1.53,0,2.68,0.86,2.94,2.17h-1.47c-0.17-0.58-0.74-0.96-1.48-0.96c-1.05,0-1.69,0.79-1.69,1.98
			c0,1.25,0.68,1.97,1.68,1.97c0.74,0,1.31-0.39,1.49-0.96h1.47c-0.26,1.32-1.41,2.17-2.94,2.17c-1.87,0-3.13-1.28-3.13-3.19
			C76.89,157.42,78.16,156.15,80.02,156.15z"/>
		<path class="st0" d="M86.88,156.15c1.94,0,3.23,1.28,3.23,3.19c0,1.91-1.29,3.19-3.23,3.19c-1.93,0-3.23-1.28-3.23-3.19
			C83.66,157.42,84.95,156.15,86.88,156.15z M86.88,161.31c1.07,0,1.79-0.79,1.79-1.98c0-1.17-0.72-1.97-1.79-1.97
			c-1.07,0-1.79,0.8-1.79,1.97C85.09,160.52,85.81,161.31,86.88,161.31z"/>
		<path class="st0" d="M95.47,157.4h-1.78v5.03h-1.37v-5.03h-1.78v-1.17h4.93V157.4z"/>
		<path class="st0" d="M101.18,157.4H99.4v5.03h-1.37v-5.03h-1.78v-1.17h4.93V157.4z"/>
		<path class="st0" d="M104.82,156.15c1.93,0,3.23,1.28,3.23,3.19c0,1.91-1.29,3.19-3.23,3.19s-3.23-1.28-3.23-3.19
			C101.6,157.42,102.89,156.15,104.82,156.15z M104.82,161.31c1.07,0,1.79-0.79,1.79-1.98c0-1.17-0.72-1.97-1.79-1.97
			c-1.07,0-1.79,0.8-1.79,1.97C103.03,160.52,103.75,161.31,104.82,161.31z"/>
		<path class="st0" d="M114.43,156.23v6.21h-1.39l-2.67-3.96v3.96h-1.36v-6.21h1.39l2.66,3.97v-3.97H114.43z"/>
		<path class="st0" d="M120.33,156.15c1.53,0,2.68,0.86,2.95,2.17h-1.47c-0.17-0.58-0.74-0.96-1.48-0.96
			c-1.05,0-1.69,0.79-1.69,1.98c0,1.25,0.68,1.97,1.68,1.97c0.74,0,1.31-0.39,1.49-0.96h1.47c-0.27,1.32-1.41,2.17-2.95,2.17
			c-1.87,0-3.13-1.28-3.13-3.19C117.2,157.42,118.47,156.15,120.33,156.15z"/>
		<path class="st0" d="M124.23,156.23h1.36v4.98h2.93v1.22h-4.29V156.23z"/>
		<path class="st0" d="M132.2,156.15c1.94,0,3.23,1.28,3.23,3.19c0,1.91-1.29,3.19-3.23,3.19c-1.93,0-3.23-1.28-3.23-3.19
			C128.97,157.42,130.26,156.15,132.2,156.15z M132.2,161.31c1.07,0,1.79-0.79,1.79-1.98c0-1.17-0.72-1.97-1.79-1.97
			c-1.07,0-1.79,0.8-1.79,1.97C130.41,160.52,131.13,161.31,132.2,161.31z"/>
		<path class="st0" d="M140.79,157.4h-1.78v5.03h-1.37v-5.03h-1.78v-1.17h4.93V157.4z"/>
		<path class="st0" d="M141.63,156.23h1.36v2.5h2.6v-2.5h1.36v6.21h-1.36v-2.6h-2.6v2.6h-1.36V156.23z"/>
		<path class="st0" d="M148.24,162.44v-6.21h1.36v6.21H148.24z"/>
		<path class="st0" d="M156.3,156.23v6.21h-1.39l-2.67-3.96v3.96h-1.36v-6.21h1.39l2.66,3.97v-3.97H156.3z"/>
		<path class="st0" d="M163.58,159.6c0,1.75-1.24,2.92-3.1,2.92c-1.94,0-3.24-1.27-3.24-3.18c0-1.88,1.26-3.2,3.21-3.2
			c1.57,0,2.74,0.85,2.94,2.12h-1.4c-0.18-0.55-0.78-0.92-1.49-0.92c-1.11,0-1.82,0.8-1.82,2.02c0,1.23,0.72,1.99,1.82,1.99
			c0.91,0,1.57-0.51,1.67-1.26h-2.11v-1.01h3.47C163.56,159.25,163.58,159.41,163.58,159.6z"/>
		<path class="st0" d="M166.35,156.23h1.5l2.01,3.27l1.99-3.27h1.47v6.21h-1.35v-1.38c0-0.91,0.02-1.87,0.06-2.82l-1.84,2.93h-0.67
			l-1.86-2.94c0.03,1.14,0.05,2.03,0.05,2.83v1.38h-1.36V156.23z"/>
		<path class="st0" d="M178.47,161.33h-2.5l-0.38,1.11h-1.52l2.29-6.21h1.68l2.38,6.21h-1.58L178.47,161.33z M178.12,160.26
			l-0.9-2.66l-0.9,2.66H178.12z"/>
		<path class="st0" d="M186.62,156.23v6.21h-1.39l-2.67-3.96v3.96h-1.36v-6.21h1.39l2.66,3.97v-3.97H186.62z"/>
		<path class="st0" d="M187.81,156.23h1.36v3.88c0,0.78,0.49,1.19,1.21,1.19c0.8,0,1.2-0.48,1.2-1.19v-3.88h1.37v3.94
			c0,1.44-0.95,2.35-2.57,2.35c-1.57,0-2.57-0.88-2.57-2.35V156.23z"/>
		<path class="st0" d="M194.15,156.23h4.42v1.19h-3.06v1.38h2.83v1.13h-2.83v2.51h-1.36V156.23z"/>
		<path class="st0" d="M202.91,161.33h-2.5l-0.38,1.11h-1.52l2.29-6.21h1.68l2.38,6.21h-1.58L202.91,161.33z M202.55,160.26
			l-0.9-2.66l-0.9,2.66H202.55z"/>
		<path class="st0" d="M208.21,156.15c1.53,0,2.68,0.86,2.95,2.17h-1.47c-0.17-0.58-0.74-0.96-1.48-0.96
			c-1.05,0-1.69,0.79-1.69,1.98c0,1.25,0.68,1.97,1.68,1.97c0.74,0,1.31-0.39,1.49-0.96h1.47c-0.27,1.32-1.41,2.17-2.95,2.17
			c-1.87,0-3.13-1.28-3.13-3.19C205.08,157.42,206.35,156.15,208.21,156.15z"/>
		<path class="st0" d="M216.5,157.4h-1.78v5.03h-1.37v-5.03h-1.78v-1.17h4.93V157.4z"/>
		<path class="st0" d="M217.27,156.23h1.36v3.88c0,0.78,0.49,1.19,1.21,1.19c0.8,0,1.2-0.48,1.2-1.19v-3.88h1.37v3.94
			c0,1.44-0.95,2.35-2.57,2.35c-1.57,0-2.57-0.88-2.57-2.35V156.23z"/>
		<path class="st0" d="M229.07,162.44h-1.67l-1.72-2.14h-0.71v2.14h-1.36v-6.21h2.95c1.47,0,2.28,0.84,2.28,1.99
			c0,1.03-0.63,1.75-1.63,1.92L229.07,162.44z M226.42,159.2c0.64,0,0.98-0.35,0.98-0.88c0-0.57-0.39-0.86-0.98-0.86h-1.46v1.74
			H226.42z"/>
		<path class="st0" d="M229.83,156.23h4.43v1.19h-3.07v1.36h2.82v1.12h-2.82v1.34h3.07v1.19h-4.43V156.23z"/>
		<path class="st0" d="M240.78,162.44h-1.67l-1.72-2.14h-0.71v2.14h-1.36v-6.21h2.95c1.47,0,2.28,0.84,2.28,1.99
			c0,1.03-0.63,1.75-1.63,1.92L240.78,162.44z M238.14,159.2c0.64,0,0.98-0.35,0.98-0.88c0-0.57-0.39-0.86-0.98-0.86h-1.46v1.74
			H238.14z"/>
	</g>
</g>
</svg>
